# xmcd
#
# Track frame offsets: 
#        182
#        11780
#        22857
#        35285
#        55907
#        70992
#        80867
#        98972
#        115405
#        128695
#
# Disc length: 1883 seconds
#
# Revision: 2
# Processed by: cddbd v1.5.2PL0 Copyright (c) Steve Scherf et al.
# Submitted via: ExactAudioCopyFreeDBPlugin 1.0
#
DISCID=8107590a
DTITLE=Various Artist - Hot New Country
DYEAR=1900
DGENRE=Country
TTITLE0=Chris LeDoux with Garth Brooks - Whatcha Gonna Do With A Cowbo
TTITLE0=y
TTITLE1=Reba McEntire - Can't Even Get The Blues No More
TTITLE2=Alan Jackson - Dallas
TTITLE3=Suzy Bogguss - Letting Go
TTITLE4=Billy Dean - Somewhere In My Broken Heart
TTITLE5=Ricky Van Shelton - Wear My Ring Around Your Neck
TTITLE6=Pam Tillis - Maybe It Was Memphis
TTITLE7=Steve Wariner - The Tips Of My Fingers
TTITLE8=Brooks and Dunn - My Next Broken Heart
TTITLE9=Aaron Tippin - There Ain't Nothing Wrong With The Radio
EXTD=
EXTT0=
EXTT1=
EXTT2=
EXTT3=
EXTT4=
EXTT5=
EXTT6=
EXTT7=
EXTT8=
EXTT9=
PLAYORDER=
